<?xml version="1.0" encoding="UTF-8" standalone="no"?>
<!DOCTYPE svg PUBLIC "-//W3C//DTD SVG 1.1//EN"
 "http://www.w3.org/Graphics/SVG/1.1/DTD/svg11.dtd">
<!-- Generated by graphviz version 2.40.1 (20161225.0304)
 -->
<!-- Title: snakemake_dag Pages: 1 -->
<svg width="1396pt" height="481pt"
 viewBox="0.00 0.00 1396.39 481.00" xmlns="http://www.w3.org/2000/svg" xmlns:xlink="http://www.w3.org/1999/xlink">
<g id="graph0" class="graph" transform="scale(1 1) rotate(0) translate(4 477)">
<title>snakemake_dag</title>
<polygon fill="#ffffff" stroke="transparent" points="-4,4 -4,-477 1392.3854,-477 1392.3854,4 -4,4"/>
<!-- 0 -->
<g id="node1" class="node">
<title>0</title>
<path fill="none" stroke="#d85656" stroke-width="2" d="M672,-36C672,-36 642,-36 642,-36 636,-36 630,-30 630,-24 630,-24 630,-12 630,-12 630,-6 636,0 642,0 642,0 672,0 672,0 678,0 684,-6 684,-12 684,-12 684,-24 684,-24 684,-30 678,-36 672,-36"/>
<text text-anchor="middle" x="657" y="-15.5" font-family="sans" font-size="10.00" fill="#000000">all</text>
</g>
<!-- 1 -->
<g id="node2" class="node">
<title>1</title>
<path fill="none" stroke="#5692d8" stroke-width="2" stroke-dasharray="5,2" d="M132,-257C132,-257 12,-257 12,-257 6,-257 0,-251 0,-245 0,-245 0,-228 0,-228 0,-222 6,-216 12,-216 12,-216 132,-216 132,-216 138,-216 144,-222 144,-228 144,-228 144,-245 144,-245 144,-251 138,-257 132,-257"/>
<text text-anchor="middle" x="72" y="-245" font-family="sans" font-size="10.00" fill="#000000">coding_change</text>
<text text-anchor="middle" x="72" y="-234" font-family="sans" font-size="10.00" fill="#000000">num_threads: 0</text>
<text text-anchor="middle" x="72" y="-223" font-family="sans" font-size="10.00" fill="#000000">vartype: missense</text>
</g>
<!-- 1&#45;&gt;0 -->
<g id="edge1" class="edge">
<title>1&#45;&gt;0</title>
<path fill="none" stroke="#c0c0c0" stroke-width="2" d="M72.3318,-215.891C74.1239,-180.2474 83.3857,-107.506 128,-72 166.3947,-41.4438 505.8973,-24.3955 619.8738,-19.4944"/>
<polygon fill="#c0c0c0" stroke="#c0c0c0" stroke-width="2" points="620.0301,-22.9911 629.8729,-19.0709 619.7338,-15.9973 620.0301,-22.9911"/>
</g>
<!-- 10 -->
<g id="node11" class="node">
<title>10</title>
<path fill="none" stroke="#d88d56" stroke-width="2" stroke-dasharray="5,2" d="M193.5,-180C193.5,-180 140.5,-180 140.5,-180 134.5,-180 128.5,-174 128.5,-168 128.5,-168 128.5,-156 128.5,-156 128.5,-150 134.5,-144 140.5,-144 140.5,-144 193.5,-144 193.5,-144 199.5,-144 205.5,-150 205.5,-156 205.5,-156 205.5,-168 205.5,-168 205.5,-174 199.5,-180 193.5,-180"/>
<text text-anchor="middle" x="167" y="-159.5" font-family="sans" font-size="10.00" fill="#000000">MutPred2</text>
</g>
<!-- 1&#45;&gt;10 -->
<g id="edge29" class="edge">
<title>1&#45;&gt;10</title>
<path fill="none" stroke="#c0c0c0" stroke-width="2" d="M98.2106,-215.9453C109.8127,-206.8469 123.5512,-196.073 135.6882,-186.5551"/>
<polygon fill="#c0c0c0" stroke="#c0c0c0" stroke-width="2" points="138.0798,-189.1275 143.7889,-180.2024 133.7601,-183.6192 138.0798,-189.1275"/>
</g>
<!-- 2 -->
<g id="node3" class="node">
<title>2</title>
<path fill="none" stroke="#5692d8" stroke-width="2" stroke-dasharray="5,2" d="M294,-257C294,-257 174,-257 174,-257 168,-257 162,-251 162,-245 162,-245 162,-228 162,-228 162,-222 168,-216 174,-216 174,-216 294,-216 294,-216 300,-216 306,-222 306,-228 306,-228 306,-245 306,-245 306,-251 300,-257 294,-257"/>
<text text-anchor="middle" x="234" y="-245" font-family="sans" font-size="10.00" fill="#000000">coding_change</text>
<text text-anchor="middle" x="234" y="-234" font-family="sans" font-size="10.00" fill="#000000">num_threads: 1</text>
<text text-anchor="middle" x="234" y="-223" font-family="sans" font-size="10.00" fill="#000000">vartype: missense</text>
</g>
<!-- 2&#45;&gt;0 -->
<g id="edge2" class="edge">
<title>2&#45;&gt;0</title>
<path fill="none" stroke="#c0c0c0" stroke-width="2" d="M161.9963,-216.033C145.033,-207.6698 128.9966,-196.0494 119,-180 89.259,-132.2515 134.8815,-97.5456 185,-72 260.9523,-33.2869 522.0069,-21.8845 619.7027,-18.9291"/>
<polygon fill="#c0c0c0" stroke="#c0c0c0" stroke-width="2" points="619.8201,-22.4272 629.7144,-18.6387 619.6172,-15.4302 619.8201,-22.4272"/>
</g>
<!-- 11 -->
<g id="node12" class="node">
<title>11</title>
<path fill="none" stroke="#d88d56" stroke-width="2" stroke-dasharray="5,2" d="M327.5,-180C327.5,-180 274.5,-180 274.5,-180 268.5,-180 262.5,-174 262.5,-168 262.5,-168 262.5,-156 262.5,-156 262.5,-150 268.5,-144 274.5,-144 274.5,-144 327.5,-144 327.5,-144 333.5,-144 339.5,-150 339.5,-156 339.5,-156 339.5,-168 339.5,-168 339.5,-174 333.5,-180 327.5,-180"/>
<text text-anchor="middle" x="301" y="-159.5" font-family="sans" font-size="10.00" fill="#000000">MutPred2</text>
</g>
<!-- 2&#45;&gt;11 -->
<g id="edge30" class="edge">
<title>2&#45;&gt;11</title>
<path fill="none" stroke="#c0c0c0" stroke-width="2" d="M252.6632,-215.7476C260.4496,-207.0896 269.5761,-196.9415 277.7889,-187.8093"/>
<polygon fill="#c0c0c0" stroke="#c0c0c0" stroke-width="2" points="280.6298,-189.8845 284.7144,-180.1087 275.425,-185.2037 280.6298,-189.8845"/>
</g>
<!-- 3 -->
<g id="node4" class="node">
<title>3</title>
<path fill="none" stroke="#5692d8" stroke-width="2" stroke-dasharray="5,2" d="M456,-257C456,-257 336,-257 336,-257 330,-257 324,-251 324,-245 324,-245 324,-228 324,-228 324,-222 330,-216 336,-216 336,-216 456,-216 456,-216 462,-216 468,-222 468,-228 468,-228 468,-245 468,-245 468,-251 462,-257 456,-257"/>
<text text-anchor="middle" x="396" y="-245" font-family="sans" font-size="10.00" fill="#000000">coding_change</text>
<text text-anchor="middle" x="396" y="-234" font-family="sans" font-size="10.00" fill="#000000">num_threads: 2</text>
<text text-anchor="middle" x="396" y="-223" font-family="sans" font-size="10.00" fill="#000000">vartype: missense</text>
</g>
<!-- 3&#45;&gt;0 -->
<g id="edge3" class="edge">
<title>3&#45;&gt;0</title>
<path fill="none" stroke="#c0c0c0" stroke-width="2" d="M323.8595,-216.2991C292.9314,-206.0445 261.8571,-193.0229 253,-180 244.002,-166.7699 245.5114,-158.1393 253,-144 279.6553,-93.6716 306.2811,-93.5448 359,-72 447.8894,-35.6732 561.6178,-23.6947 619.5038,-19.8125"/>
<polygon fill="#c0c0c0" stroke="#c0c0c0" stroke-width="2" points="619.8822,-23.2958 629.644,-19.1778 619.4448,-16.3095 619.8822,-23.2958"/>
</g>
<!-- 12 -->
<g id="node13" class="node">
<title>12</title>
<path fill="none" stroke="#d88d56" stroke-width="2" stroke-dasharray="5,2" d="M422.5,-180C422.5,-180 369.5,-180 369.5,-180 363.5,-180 357.5,-174 357.5,-168 357.5,-168 357.5,-156 357.5,-156 357.5,-150 363.5,-144 369.5,-144 369.5,-144 422.5,-144 422.5,-144 428.5,-144 434.5,-150 434.5,-156 434.5,-156 434.5,-168 434.5,-168 434.5,-174 428.5,-180 422.5,-180"/>
<text text-anchor="middle" x="396" y="-159.5" font-family="sans" font-size="10.00" fill="#000000">MutPred2</text>
</g>
<!-- 3&#45;&gt;12 -->
<g id="edge31" class="edge">
<title>3&#45;&gt;12</title>
<path fill="none" stroke="#c0c0c0" stroke-width="2" d="M396,-215.7476C396,-207.8767 396,-198.7743 396,-190.3232"/>
<polygon fill="#c0c0c0" stroke="#c0c0c0" stroke-width="2" points="399.5001,-190.1086 396,-180.1087 392.5001,-190.1087 399.5001,-190.1086"/>
</g>
<!-- 4 -->
<g id="node5" class="node">
<title>4</title>
<path fill="none" stroke="#5692d8" stroke-width="2" stroke-dasharray="5,2" d="M596,-257C596,-257 498,-257 498,-257 492,-257 486,-251 486,-245 486,-245 486,-228 486,-228 486,-222 492,-216 498,-216 498,-216 596,-216 596,-216 602,-216 608,-222 608,-228 608,-228 608,-245 608,-245 608,-251 602,-257 596,-257"/>
<text text-anchor="middle" x="547" y="-245" font-family="sans" font-size="10.00" fill="#000000">coding_change</text>
<text text-anchor="middle" x="547" y="-234" font-family="sans" font-size="10.00" fill="#000000">num_threads: 0</text>
<text text-anchor="middle" x="547" y="-223" font-family="sans" font-size="10.00" fill="#000000">vartype: LOF</text>
</g>
<!-- 4&#45;&gt;0 -->
<g id="edge4" class="edge">
<title>4&#45;&gt;0</title>
<path fill="none" stroke="#c0c0c0" stroke-width="2" d="M512.9733,-215.8927C500.8465,-206.5875 488.5727,-194.422 482,-180 475.3647,-165.4407 474.9172,-158.3469 482,-144 510.1364,-87.007 577.9211,-50.1912 620.3909,-31.8565"/>
<polygon fill="#c0c0c0" stroke="#c0c0c0" stroke-width="2" points="621.9512,-34.9977 629.8239,-27.9076 619.248,-28.5407 621.9512,-34.9977"/>
</g>
<!-- 13 -->
<g id="node14" class="node">
<title>13</title>
<path fill="none" stroke="#56d8a9" stroke-width="2" d="M578.5,-180C578.5,-180 503.5,-180 503.5,-180 497.5,-180 491.5,-174 491.5,-168 491.5,-168 491.5,-156 491.5,-156 491.5,-150 497.5,-144 503.5,-144 503.5,-144 578.5,-144 578.5,-144 584.5,-144 590.5,-150 590.5,-156 590.5,-156 590.5,-168 590.5,-168 590.5,-174 584.5,-180 578.5,-180"/>
<text text-anchor="middle" x="541" y="-159.5" font-family="sans" font-size="10.00" fill="#000000">MutPred_LOF</text>
</g>
<!-- 4&#45;&gt;13 -->
<g id="edge32" class="edge">
<title>4&#45;&gt;13</title>
<path fill="none" stroke="#c0c0c0" stroke-width="2" d="M545.3287,-215.7476C544.6948,-207.8767 543.9617,-198.7743 543.2811,-190.3232"/>
<polygon fill="#c0c0c0" stroke="#c0c0c0" stroke-width="2" points="546.75,-189.7954 542.4584,-180.1087 539.7726,-190.3574 546.75,-189.7954"/>
</g>
<!-- 5 -->
<g id="node6" class="node">
<title>5</title>
<path fill="none" stroke="#5692d8" stroke-width="2" stroke-dasharray="5,2" d="M736,-257C736,-257 638,-257 638,-257 632,-257 626,-251 626,-245 626,-245 626,-228 626,-228 626,-222 632,-216 638,-216 638,-216 736,-216 736,-216 742,-216 748,-222 748,-228 748,-228 748,-245 748,-245 748,-251 742,-257 736,-257"/>
<text text-anchor="middle" x="687" y="-245" font-family="sans" font-size="10.00" fill="#000000">coding_change</text>
<text text-anchor="middle" x="687" y="-234" font-family="sans" font-size="10.00" fill="#000000">num_threads: 1</text>
<text text-anchor="middle" x="687" y="-223" font-family="sans" font-size="10.00" fill="#000000">vartype: LOF</text>
</g>
<!-- 5&#45;&gt;0 -->
<g id="edge5" class="edge">
<title>5&#45;&gt;0</title>
<path fill="none" stroke="#c0c0c0" stroke-width="2" d="M662.7568,-215.913C653.0994,-206.1416 643.0849,-193.6241 638,-180 621.2196,-135.0396 634.9824,-78.6128 646.2035,-45.6037"/>
<polygon fill="#c0c0c0" stroke="#c0c0c0" stroke-width="2" points="649.5125,-46.7447 649.5677,-36.15 642.9176,-44.3978 649.5125,-46.7447"/>
</g>
<!-- 14 -->
<g id="node15" class="node">
<title>14</title>
<path fill="none" stroke="#56d8a9" stroke-width="2" d="M734.5,-180C734.5,-180 659.5,-180 659.5,-180 653.5,-180 647.5,-174 647.5,-168 647.5,-168 647.5,-156 647.5,-156 647.5,-150 653.5,-144 659.5,-144 659.5,-144 734.5,-144 734.5,-144 740.5,-144 746.5,-150 746.5,-156 746.5,-156 746.5,-168 746.5,-168 746.5,-174 740.5,-180 734.5,-180"/>
<text text-anchor="middle" x="697" y="-159.5" font-family="sans" font-size="10.00" fill="#000000">MutPred_LOF</text>
</g>
<!-- 5&#45;&gt;14 -->
<g id="edge33" class="edge">
<title>5&#45;&gt;14</title>
<path fill="none" stroke="#c0c0c0" stroke-width="2" d="M689.7856,-215.7476C690.8538,-207.7892 692.091,-198.5718 693.236,-190.0418"/>
<polygon fill="#c0c0c0" stroke="#c0c0c0" stroke-width="2" points="696.7078,-190.4854 694.5693,-180.1087 689.77,-189.5541 696.7078,-190.4854"/>
</g>
<!-- 6 -->
<g id="node7" class="node">
<title>6</title>
<path fill="none" stroke="#5692d8" stroke-width="2" stroke-dasharray="5,2" d="M876,-257C876,-257 778,-257 778,-257 772,-257 766,-251 766,-245 766,-245 766,-228 766,-228 766,-222 772,-216 778,-216 778,-216 876,-216 876,-216 882,-216 888,-222 888,-228 888,-228 888,-245 888,-245 888,-251 882,-257 876,-257"/>
<text text-anchor="middle" x="827" y="-245" font-family="sans" font-size="10.00" fill="#000000">coding_change</text>
<text text-anchor="middle" x="827" y="-234" font-family="sans" font-size="10.00" fill="#000000">num_threads: 2</text>
<text text-anchor="middle" x="827" y="-223" font-family="sans" font-size="10.00" fill="#000000">vartype: LOF</text>
</g>
<!-- 6&#45;&gt;0 -->
<g id="edge6" class="edge">
<title>6&#45;&gt;0</title>
<path fill="none" stroke="#c0c0c0" stroke-width="2" d="M848.537,-215.8928C865.4171,-197.1251 884.1745,-168.6607 872,-144 837.6163,-74.3525 745.7189,-40.4233 693.8862,-26.3679"/>
<polygon fill="#c0c0c0" stroke="#c0c0c0" stroke-width="2" points="694.6419,-22.948 684.0828,-23.8171 692.8792,-29.7225 694.6419,-22.948"/>
</g>
<!-- 15 -->
<g id="node16" class="node">
<title>15</title>
<path fill="none" stroke="#56d8a9" stroke-width="2" d="M851.5,-180C851.5,-180 776.5,-180 776.5,-180 770.5,-180 764.5,-174 764.5,-168 764.5,-168 764.5,-156 764.5,-156 764.5,-150 770.5,-144 776.5,-144 776.5,-144 851.5,-144 851.5,-144 857.5,-144 863.5,-150 863.5,-156 863.5,-156 863.5,-168 863.5,-168 863.5,-174 857.5,-180 851.5,-180"/>
<text text-anchor="middle" x="814" y="-159.5" font-family="sans" font-size="10.00" fill="#000000">MutPred_LOF</text>
</g>
<!-- 6&#45;&gt;15 -->
<g id="edge34" class="edge">
<title>6&#45;&gt;15</title>
<path fill="none" stroke="#c0c0c0" stroke-width="2" d="M823.3788,-215.7476C821.9901,-207.7892 820.3817,-198.5718 818.8932,-190.0418"/>
<polygon fill="#c0c0c0" stroke="#c0c0c0" stroke-width="2" points="822.3269,-189.3581 817.1599,-180.1087 815.4311,-190.5615 822.3269,-189.3581"/>
</g>
<!-- 7 -->
<g id="node8" class="node">
<title>7</title>
<path fill="none" stroke="#5692d8" stroke-width="2" stroke-dasharray="5,2" d="M1026.5,-257C1026.5,-257 921.5,-257 921.5,-257 915.5,-257 909.5,-251 909.5,-245 909.5,-245 909.5,-228 909.5,-228 909.5,-222 915.5,-216 921.5,-216 921.5,-216 1026.5,-216 1026.5,-216 1032.5,-216 1038.5,-222 1038.5,-228 1038.5,-228 1038.5,-245 1038.5,-245 1038.5,-251 1032.5,-257 1026.5,-257"/>
<text text-anchor="middle" x="974" y="-245" font-family="sans" font-size="10.00" fill="#000000">coding_change</text>
<text text-anchor="middle" x="974" y="-234" font-family="sans" font-size="10.00" fill="#000000">num_threads: 0</text>
<text text-anchor="middle" x="974" y="-223" font-family="sans" font-size="10.00" fill="#000000">vartype: indels</text>
</g>
<!-- 7&#45;&gt;0 -->
<g id="edge7" class="edge">
<title>7&#45;&gt;0</title>
<path fill="none" stroke="#c0c0c0" stroke-width="2" d="M1038.7041,-218.312C1097.4628,-201.7953 1175,-180 1175,-180 1184.6624,-167.2471 1184.0076,-157.2236 1175,-144 1120.0362,-63.31 803.8542,-30.0406 694.334,-20.8338"/>
<polygon fill="#c0c0c0" stroke="#c0c0c0" stroke-width="2" points="694.3508,-17.3235 684.0978,-19.9932 693.7778,-24.3 694.3508,-17.3235"/>
</g>
<!-- 16 -->
<g id="node17" class="node">
<title>16</title>
<path fill="none" stroke="#70d856" stroke-width="2" d="M1022,-180C1022,-180 932,-180 932,-180 926,-180 920,-174 920,-168 920,-168 920,-156 920,-156 920,-150 926,-144 932,-144 932,-144 1022,-144 1022,-144 1028,-144 1034,-150 1034,-156 1034,-156 1034,-168 1034,-168 1034,-174 1028,-180 1022,-180"/>
<text text-anchor="middle" x="977" y="-159.5" font-family="sans" font-size="10.00" fill="#000000">MutPred_indel</text>
</g>
<!-- 7&#45;&gt;16 -->
<g id="edge35" class="edge">
<title>7&#45;&gt;16</title>
<path fill="none" stroke="#c0c0c0" stroke-width="2" d="M974.8357,-215.7476C975.1526,-207.8767 975.5192,-198.7743 975.8595,-190.3232"/>
<polygon fill="#c0c0c0" stroke="#c0c0c0" stroke-width="2" points="979.3655,-190.2414 976.2708,-180.1087 972.3712,-189.9597 979.3655,-190.2414"/>
</g>
<!-- 8 -->
<g id="node9" class="node">
<title>8</title>
<path fill="none" stroke="#5692d8" stroke-width="2" stroke-dasharray="5,2" d="M1173.5,-257C1173.5,-257 1068.5,-257 1068.5,-257 1062.5,-257 1056.5,-251 1056.5,-245 1056.5,-245 1056.5,-228 1056.5,-228 1056.5,-222 1062.5,-216 1068.5,-216 1068.5,-216 1173.5,-216 1173.5,-216 1179.5,-216 1185.5,-222 1185.5,-228 1185.5,-228 1185.5,-245 1185.5,-245 1185.5,-251 1179.5,-257 1173.5,-257"/>
<text text-anchor="middle" x="1121" y="-245" font-family="sans" font-size="10.00" fill="#000000">coding_change</text>
<text text-anchor="middle" x="1121" y="-234" font-family="sans" font-size="10.00" fill="#000000">num_threads: 1</text>
<text text-anchor="middle" x="1121" y="-223" font-family="sans" font-size="10.00" fill="#000000">vartype: indels</text>
</g>
<!-- 8&#45;&gt;0 -->
<g id="edge8" class="edge">
<title>8&#45;&gt;0</title>
<path fill="none" stroke="#c0c0c0" stroke-width="2" d="M1159.2161,-215.7401C1172.0824,-206.6158 1184.9524,-194.6151 1192,-180 1198.9496,-165.5881 1199.2259,-158.2754 1192,-144 1167.5912,-95.7787 1144.2258,-91.9613 1094,-72 1021.3945,-43.1443 786.1278,-25.9417 694.2473,-20.1798"/>
<polygon fill="#c0c0c0" stroke="#c0c0c0" stroke-width="2" points="694.2235,-16.6718 684.0269,-19.5492 693.7924,-23.6585 694.2235,-16.6718"/>
</g>
<!-- 17 -->
<g id="node18" class="node">
<title>17</title>
<path fill="none" stroke="#70d856" stroke-width="2" d="M1154,-180C1154,-180 1064,-180 1064,-180 1058,-180 1052,-174 1052,-168 1052,-168 1052,-156 1052,-156 1052,-150 1058,-144 1064,-144 1064,-144 1154,-144 1154,-144 1160,-144 1166,-150 1166,-156 1166,-156 1166,-168 1166,-168 1166,-174 1160,-180 1154,-180"/>
<text text-anchor="middle" x="1109" y="-159.5" font-family="sans" font-size="10.00" fill="#000000">MutPred_indel</text>
</g>
<!-- 8&#45;&gt;17 -->
<g id="edge36" class="edge">
<title>8&#45;&gt;17</title>
<path fill="none" stroke="#c0c0c0" stroke-width="2" d="M1117.6573,-215.7476C1116.3754,-207.7892 1114.8908,-198.5718 1113.5168,-190.0418"/>
<polygon fill="#c0c0c0" stroke="#c0c0c0" stroke-width="2" points="1116.9626,-189.4248 1111.9168,-180.1087 1110.0517,-190.538 1116.9626,-189.4248"/>
</g>
<!-- 9 -->
<g id="node10" class="node">
<title>9</title>
<path fill="none" stroke="#5692d8" stroke-width="2" stroke-dasharray="5,2" d="M1369.5,-257C1369.5,-257 1264.5,-257 1264.5,-257 1258.5,-257 1252.5,-251 1252.5,-245 1252.5,-245 1252.5,-228 1252.5,-228 1252.5,-222 1258.5,-216 1264.5,-216 1264.5,-216 1369.5,-216 1369.5,-216 1375.5,-216 1381.5,-222 1381.5,-228 1381.5,-228 1381.5,-245 1381.5,-245 1381.5,-251 1375.5,-257 1369.5,-257"/>
<text text-anchor="middle" x="1317" y="-245" font-family="sans" font-size="10.00" fill="#000000">coding_change</text>
<text text-anchor="middle" x="1317" y="-234" font-family="sans" font-size="10.00" fill="#000000">num_threads: 2</text>
<text text-anchor="middle" x="1317" y="-223" font-family="sans" font-size="10.00" fill="#000000">vartype: indels</text>
</g>
<!-- 9&#45;&gt;0 -->
<g id="edge9" class="edge">
<title>9&#45;&gt;0</title>
<path fill="none" stroke="#c0c0c0" stroke-width="2" d="M1351.5383,-215.9974C1363.85,-206.7067 1376.3146,-194.5236 1383,-180 1389.6902,-165.4659 1390.4257,-158.1725 1383,-144 1356.9087,-94.203 1331.8852,-91.0695 1279,-72 1170.3566,-32.825 811.5957,-21.4523 694.3988,-18.7408"/>
<polygon fill="#c0c0c0" stroke="#c0c0c0" stroke-width="2" points="694.2196,-15.236 684.1439,-18.5116 694.0631,-22.2342 694.2196,-15.236"/>
</g>
<!-- 18 -->
<g id="node19" class="node">
<title>18</title>
<path fill="none" stroke="#70d856" stroke-width="2" d="M1362,-180C1362,-180 1272,-180 1272,-180 1266,-180 1260,-174 1260,-168 1260,-168 1260,-156 1260,-156 1260,-150 1266,-144 1272,-144 1272,-144 1362,-144 1362,-144 1368,-144 1374,-150 1374,-156 1374,-156 1374,-168 1374,-168 1374,-174 1368,-180 1362,-180"/>
<text text-anchor="middle" x="1317" y="-159.5" font-family="sans" font-size="10.00" fill="#000000">MutPred_indel</text>
</g>
<!-- 9&#45;&gt;18 -->
<g id="edge37" class="edge">
<title>9&#45;&gt;18</title>
<path fill="none" stroke="#c0c0c0" stroke-width="2" d="M1317,-215.7476C1317,-207.8767 1317,-198.7743 1317,-190.3232"/>
<polygon fill="#c0c0c0" stroke="#c0c0c0" stroke-width="2" points="1320.5001,-190.1086 1317,-180.1087 1313.5001,-190.1087 1320.5001,-190.1086"/>
</g>
<!-- 10&#45;&gt;0 -->
<g id="edge10" class="edge">
<title>10&#45;&gt;0</title>
<path fill="none" stroke="#c0c0c0" stroke-width="2" d="M172.3261,-143.7073C179.4884,-122.6506 194.3797,-88.8137 220,-72 285.5397,-28.9886 526.5527,-20.2349 619.8097,-18.4543"/>
<polygon fill="#c0c0c0" stroke="#c0c0c0" stroke-width="2" points="619.9777,-21.952 629.9151,-18.278 619.8555,-14.9531 619.9777,-21.952"/>
</g>
<!-- 19 -->
<g id="node20" class="node">
<title>19</title>
<path fill="none" stroke="#56d873" stroke-width="2" d="M727,-108C727,-108 697,-108 697,-108 691,-108 685,-102 685,-96 685,-96 685,-84 685,-84 685,-78 691,-72 697,-72 697,-72 727,-72 727,-72 733,-72 739,-78 739,-84 739,-84 739,-96 739,-96 739,-102 733,-108 727,-108"/>
<text text-anchor="middle" x="712" y="-87.5" font-family="sans" font-size="10.00" fill="#000000">Merge</text>
</g>
<!-- 10&#45;&gt;19 -->
<g id="edge38" class="edge">
<title>10&#45;&gt;19</title>
<path fill="none" stroke="#c0c0c0" stroke-width="2" d="M205.8208,-153.1077C220.5429,-149.9377 237.4933,-146.5298 253,-144 408.8036,-118.5821 596.2344,-100.3382 674.6531,-93.2545"/>
<polygon fill="#c0c0c0" stroke="#c0c0c0" stroke-width="2" points="675.3324,-96.7078 684.9802,-92.3295 674.7078,-89.7357 675.3324,-96.7078"/>
</g>
<!-- 11&#45;&gt;0 -->
<g id="edge11" class="edge">
<title>11&#45;&gt;0</title>
<path fill="none" stroke="#c0c0c0" stroke-width="2" d="M318.7781,-143.8687C340.0084,-123.2914 377.5052,-90.2279 416,-72 483.5138,-40.0312 570.7503,-26.5653 619.5981,-21.2242"/>
<polygon fill="#c0c0c0" stroke="#c0c0c0" stroke-width="2" points="620.1222,-24.6887 629.7077,-20.1756 619.4,-17.726 620.1222,-24.6887"/>
</g>
<!-- 11&#45;&gt;19 -->
<g id="edge39" class="edge">
<title>11&#45;&gt;19</title>
<path fill="none" stroke="#c0c0c0" stroke-width="2" d="M339.5093,-146.4855C342.3599,-145.5736 345.2109,-144.7316 348,-144 465.0221,-113.3062 608.0936,-98.474 674.6424,-92.8323"/>
<polygon fill="#c0c0c0" stroke="#c0c0c0" stroke-width="2" points="674.9728,-96.317 684.6504,-92.0047 674.3959,-89.3408 674.9728,-96.317"/>
</g>
<!-- 12&#45;&gt;0 -->
<g id="edge12" class="edge">
<title>12&#45;&gt;0</title>
<path fill="none" stroke="#c0c0c0" stroke-width="2" d="M401.8614,-143.9107C409.4551,-123.3727 424.6804,-90.3462 449,-72 475.8055,-51.7785 567.7478,-33.2967 619.976,-24.1054"/>
<polygon fill="#c0c0c0" stroke="#c0c0c0" stroke-width="2" points="620.6052,-27.5486 629.8611,-22.3932 619.4104,-20.6513 620.6052,-27.5486"/>
</g>
<!-- 12&#45;&gt;19 -->
<g id="edge40" class="edge">
<title>12&#45;&gt;19</title>
<path fill="none" stroke="#c0c0c0" stroke-width="2" d="M434.7478,-153.1714C496.1306,-139.1854 614.9242,-112.1185 675.1193,-98.4032"/>
<polygon fill="#c0c0c0" stroke="#c0c0c0" stroke-width="2" points="675.983,-101.7962 684.9556,-96.162 674.4279,-94.9711 675.983,-101.7962"/>
</g>
<!-- 13&#45;&gt;0 -->
<g id="edge13" class="edge">
<title>13&#45;&gt;0</title>
<path fill="none" stroke="#c0c0c0" stroke-width="2" d="M552.7587,-143.8332C565.0622,-125.2322 585.2956,-95.761 605,-72 612.9679,-62.3917 622.2639,-52.4037 630.7747,-43.669"/>
<polygon fill="#c0c0c0" stroke="#c0c0c0" stroke-width="2" points="633.4605,-45.9304 637.9985,-36.3567 628.4807,-41.0109 633.4605,-45.9304"/>
</g>
<!-- 13&#45;&gt;19 -->
<g id="edge41" class="edge">
<title>13&#45;&gt;19</title>
<path fill="none" stroke="#c0c0c0" stroke-width="2" d="M584.1505,-143.8314C612.3485,-131.9585 648.7682,-116.6239 675.5194,-105.3603"/>
<polygon fill="#c0c0c0" stroke="#c0c0c0" stroke-width="2" points="677.0464,-108.515 684.9045,-101.4086 674.33,-102.0635 677.0464,-108.515"/>
</g>
<!-- 14&#45;&gt;0 -->
<g id="edge14" class="edge">
<title>14&#45;&gt;0</title>
<path fill="none" stroke="#c0c0c0" stroke-width="2" d="M689.0528,-143.7644C684.7616,-133.4182 679.6178,-120.147 676,-108 669.9316,-87.6253 665.0366,-64.1032 661.7356,-46.2169"/>
<polygon fill="#c0c0c0" stroke="#c0c0c0" stroke-width="2" points="665.1404,-45.3735 659.9348,-36.1457 658.2497,-46.6057 665.1404,-45.3735"/>
</g>
<!-- 14&#45;&gt;19 -->
<g id="edge42" class="edge">
<title>14&#45;&gt;19</title>
<path fill="none" stroke="#c0c0c0" stroke-width="2" d="M700.7851,-143.8314C702.3894,-136.131 704.297,-126.9743 706.0799,-118.4166"/>
<polygon fill="#c0c0c0" stroke="#c0c0c0" stroke-width="2" points="709.5507,-118.9169 708.1639,-108.4133 702.6979,-117.4892 709.5507,-118.9169"/>
</g>
<!-- 15&#45;&gt;0 -->
<g id="edge15" class="edge">
<title>15&#45;&gt;0</title>
<path fill="none" stroke="#c0c0c0" stroke-width="2" d="M803.6733,-143.7565C792.0019,-124.2825 771.5346,-93.3516 748,-72 731.7793,-57.2839 710.9309,-44.5631 693.2829,-35.1707"/>
<polygon fill="#c0c0c0" stroke="#c0c0c0" stroke-width="2" points="694.8775,-32.0551 684.3873,-30.5696 691.6615,-38.2726 694.8775,-32.0551"/>
</g>
<!-- 15&#45;&gt;19 -->
<g id="edge43" class="edge">
<title>15&#45;&gt;19</title>
<path fill="none" stroke="#c0c0c0" stroke-width="2" d="M788.2611,-143.8314C775.4563,-134.7927 759.8091,-123.7476 746.0281,-114.0198"/>
<polygon fill="#c0c0c0" stroke="#c0c0c0" stroke-width="2" points="747.9188,-111.0703 737.7307,-108.1628 743.882,-116.7891 747.9188,-111.0703"/>
</g>
<!-- 16&#45;&gt;0 -->
<g id="edge16" class="edge">
<title>16&#45;&gt;0</title>
<path fill="none" stroke="#c0c0c0" stroke-width="2" d="M967.6522,-143.685C956.0744,-122.9351 934.3596,-89.7096 906,-72 871.0481,-50.1738 755.0825,-31.5149 694.5377,-22.9738"/>
<polygon fill="#c0c0c0" stroke="#c0c0c0" stroke-width="2" points="694.6475,-19.4555 684.261,-21.5462 693.6843,-26.3889 694.6475,-19.4555"/>
</g>
<!-- 16&#45;&gt;19 -->
<g id="edge44" class="edge">
<title>16&#45;&gt;19</title>
<path fill="none" stroke="#c0c0c0" stroke-width="2" d="M919.8252,-146.4657C868.0201,-132.3904 793.2108,-112.0648 748.902,-100.0262"/>
<polygon fill="#c0c0c0" stroke="#c0c0c0" stroke-width="2" points="749.6961,-96.6151 739.1283,-97.3707 747.8607,-103.3703 749.6961,-96.6151"/>
</g>
<!-- 17&#45;&gt;0 -->
<g id="edge17" class="edge">
<title>17&#45;&gt;0</title>
<path fill="none" stroke="#c0c0c0" stroke-width="2" d="M1081.0166,-143.82C1048.2636,-123.3557 991.7704,-90.5511 939,-72 854.1757,-42.1806 748.8861,-27.5739 694.0812,-21.5463"/>
<polygon fill="#c0c0c0" stroke="#c0c0c0" stroke-width="2" points="694.4476,-18.0656 684.1329,-20.486 693.7056,-25.0262 694.4476,-18.0656"/>
</g>
<!-- 17&#45;&gt;19 -->
<g id="edge45" class="edge">
<title>17&#45;&gt;19</title>
<path fill="none" stroke="#c0c0c0" stroke-width="2" d="M1051.8527,-146.0216C1048.8657,-145.3096 1045.9015,-144.6305 1043,-144 937.3116,-121.0327 810.7279,-102.9647 749.2169,-94.7784"/>
<polygon fill="#c0c0c0" stroke="#c0c0c0" stroke-width="2" points="749.5834,-91.2965 739.2114,-93.4578 748.6674,-98.2363 749.5834,-91.2965"/>
</g>
<!-- 18&#45;&gt;0 -->
<g id="edge18" class="edge">
<title>18&#45;&gt;0</title>
<path fill="none" stroke="#c0c0c0" stroke-width="2" d="M1308.4135,-143.8165C1297.2893,-122.5292 1275.7374,-88.1356 1246,-72 1197.5948,-45.7352 816.7041,-25.5694 694.5582,-19.7247"/>
<polygon fill="#c0c0c0" stroke="#c0c0c0" stroke-width="2" points="694.3766,-16.2122 684.2221,-19.2348 694.0451,-23.2044 694.3766,-16.2122"/>
</g>
<!-- 18&#45;&gt;19 -->
<g id="edge46" class="edge">
<title>18&#45;&gt;19</title>
<path fill="none" stroke="#c0c0c0" stroke-width="2" d="M1259.6698,-154.6006C1233.8087,-151.2968 1202.8749,-147.3922 1175,-144 1016.9457,-124.766 828.361,-103.2009 749.5288,-94.2484"/>
<polygon fill="#c0c0c0" stroke="#c0c0c0" stroke-width="2" points="749.4792,-90.7204 739.1483,-93.0705 748.6898,-97.6758 749.4792,-90.7204"/>
</g>
<!-- 19&#45;&gt;0 -->
<g id="edge19" class="edge">
<title>19&#45;&gt;0</title>
<path fill="none" stroke="#c0c0c0" stroke-width="2" d="M698.1212,-71.8314C691.7864,-63.5386 684.1616,-53.557 677.2074,-44.4533"/>
<polygon fill="#c0c0c0" stroke="#c0c0c0" stroke-width="2" points="679.9175,-42.2353 671.0657,-36.4133 674.3548,-46.4847 679.9175,-42.2353"/>
</g>
<!-- 20 -->
<g id="node21" class="node">
<title>20</title>
<path fill="none" stroke="#d8cb56" stroke-width="2" stroke-dasharray="5,2" d="M713.5,-329C713.5,-329 660.5,-329 660.5,-329 654.5,-329 648.5,-323 648.5,-317 648.5,-317 648.5,-305 648.5,-305 648.5,-299 654.5,-293 660.5,-293 660.5,-293 713.5,-293 713.5,-293 719.5,-293 725.5,-299 725.5,-305 725.5,-305 725.5,-317 725.5,-317 725.5,-323 719.5,-329 713.5,-329"/>
<text text-anchor="middle" x="687" y="-308.5" font-family="sans" font-size="10.00" fill="#000000">splitter</text>
</g>
<!-- 20&#45;&gt;1 -->
<g id="edge20" class="edge">
<title>20&#45;&gt;1</title>
<path fill="none" stroke="#c0c0c0" stroke-width="2" d="M648.2006,-309.0373C561.2933,-304.2216 344.3503,-289.8669 154.2026,-257.0878"/>
<polygon fill="#c0c0c0" stroke="#c0c0c0" stroke-width="2" points="154.7623,-253.6326 144.3095,-255.3612 153.5588,-260.5284 154.7623,-253.6326"/>
</g>
<!-- 20&#45;&gt;2 -->
<g id="edge21" class="edge">
<title>20&#45;&gt;2</title>
<path fill="none" stroke="#c0c0c0" stroke-width="2" d="M648.4865,-306.7452C582.4246,-299.1576 443.1275,-281.8968 316.2301,-257.1527"/>
<polygon fill="#c0c0c0" stroke="#c0c0c0" stroke-width="2" points="316.8271,-253.7031 306.339,-255.2036 315.4736,-260.571 316.8271,-253.7031"/>
</g>
<!-- 20&#45;&gt;3 -->
<g id="edge22" class="edge">
<title>20&#45;&gt;3</title>
<path fill="none" stroke="#c0c0c0" stroke-width="2" d="M648.3574,-301.107C605.1135,-290.0359 533.8033,-271.7795 477.9979,-257.4926"/>
<polygon fill="#c0c0c0" stroke="#c0c0c0" stroke-width="2" points="478.6788,-254.0541 468.1231,-254.9645 476.9426,-260.8354 478.6788,-254.0541"/>
</g>
<!-- 20&#45;&gt;4 -->
<g id="edge23" class="edge">
<title>20&#45;&gt;4</title>
<path fill="none" stroke="#c0c0c0" stroke-width="2" d="M653.1099,-292.9656C635.5749,-283.6345 613.8768,-272.088 594.6801,-261.8726"/>
<polygon fill="#c0c0c0" stroke="#c0c0c0" stroke-width="2" points="596.2463,-258.7414 585.7742,-257.1334 592.9578,-264.9209 596.2463,-258.7414"/>
</g>
<!-- 20&#45;&gt;5 -->
<g id="edge24" class="edge">
<title>20&#45;&gt;5</title>
<path fill="none" stroke="#c0c0c0" stroke-width="2" d="M687,-292.9656C687,-285.3118 687,-276.1674 687,-267.4898"/>
<polygon fill="#c0c0c0" stroke="#c0c0c0" stroke-width="2" points="690.5001,-267.2678 687,-257.2679 683.5001,-267.2679 690.5001,-267.2678"/>
</g>
<!-- 20&#45;&gt;6 -->
<g id="edge25" class="edge">
<title>20&#45;&gt;6</title>
<path fill="none" stroke="#c0c0c0" stroke-width="2" d="M720.8901,-292.9656C738.4251,-283.6345 760.1232,-272.088 779.3199,-261.8726"/>
<polygon fill="#c0c0c0" stroke="#c0c0c0" stroke-width="2" points="781.0422,-264.9209 788.2258,-257.1334 777.7537,-258.7414 781.0422,-264.9209"/>
</g>
<!-- 20&#45;&gt;7 -->
<g id="edge26" class="edge">
<title>20&#45;&gt;7</title>
<path fill="none" stroke="#c0c0c0" stroke-width="2" d="M725.7303,-301.1458C767.8881,-290.3951 837.2743,-272.6292 897,-257 897.7528,-256.803 898.5097,-256.6048 899.2701,-256.4054"/>
<polygon fill="#c0c0c0" stroke="#c0c0c0" stroke-width="2" points="900.5305,-259.6931 909.3117,-253.7649 898.7503,-252.9232 900.5305,-259.6931"/>
</g>
<!-- 20&#45;&gt;8 -->
<g id="edge27" class="edge">
<title>20&#45;&gt;8</title>
<path fill="none" stroke="#c0c0c0" stroke-width="2" d="M725.6362,-306.7654C790.1073,-299.3612 923.8021,-282.5687 1046.2186,-257.0412"/>
<polygon fill="#c0c0c0" stroke="#c0c0c0" stroke-width="2" points="1047.0759,-260.4375 1056.1378,-254.9481 1045.6306,-253.5883 1047.0759,-260.4375"/>
</g>
<!-- 20&#45;&gt;9 -->
<g id="edge28" class="edge">
<title>20&#45;&gt;9</title>
<path fill="none" stroke="#c0c0c0" stroke-width="2" d="M725.6522,-307.6967C810.6938,-300.2525 1020.3582,-280.9325 1195,-257 1210.2732,-254.907 1226.5726,-252.3761 1242.1221,-249.8174"/>
<polygon fill="#c0c0c0" stroke="#c0c0c0" stroke-width="2" points="1242.9248,-253.232 1252.2137,-248.1363 1241.7745,-246.3271 1242.9248,-253.232"/>
</g>
<!-- 21 -->
<g id="node22" class="node">
<title>21</title>
<path fill="none" stroke="#56c9d8" stroke-width="2" stroke-dasharray="5,2" d="M743.5,-401C743.5,-401 630.5,-401 630.5,-401 624.5,-401 618.5,-395 618.5,-389 618.5,-389 618.5,-377 618.5,-377 618.5,-371 624.5,-365 630.5,-365 630.5,-365 743.5,-365 743.5,-365 749.5,-365 755.5,-371 755.5,-377 755.5,-377 755.5,-389 755.5,-389 755.5,-395 749.5,-401 743.5,-401"/>
<text text-anchor="middle" x="687" y="-380.5" font-family="sans" font-size="10.00" fill="#000000">annovar_annotate</text>
</g>
<!-- 21&#45;&gt;20 -->
<g id="edge47" class="edge">
<title>21&#45;&gt;20</title>
<path fill="none" stroke="#c0c0c0" stroke-width="2" d="M687,-364.8314C687,-357.131 687,-347.9743 687,-339.4166"/>
<polygon fill="#c0c0c0" stroke="#c0c0c0" stroke-width="2" points="690.5001,-339.4132 687,-329.4133 683.5001,-339.4133 690.5001,-339.4132"/>
</g>
<!-- 22 -->
<g id="node23" class="node">
<title>22</title>
<path fill="none" stroke="#afd856" stroke-width="2" stroke-dasharray="5,2" d="M739.5,-473C739.5,-473 634.5,-473 634.5,-473 628.5,-473 622.5,-467 622.5,-461 622.5,-461 622.5,-449 622.5,-449 622.5,-443 628.5,-437 634.5,-437 634.5,-437 739.5,-437 739.5,-437 745.5,-437 751.5,-443 751.5,-449 751.5,-449 751.5,-461 751.5,-461 751.5,-467 745.5,-473 739.5,-473"/>
<text text-anchor="middle" x="687" y="-452.5" font-family="sans" font-size="10.00" fill="#000000">annovar_convert</text>
</g>
<!-- 22&#45;&gt;21 -->
<g id="edge48" class="edge">
<title>22&#45;&gt;21</title>
<path fill="none" stroke="#c0c0c0" stroke-width="2" d="M687,-436.8314C687,-429.131 687,-419.9743 687,-411.4166"/>
<polygon fill="#c0c0c0" stroke="#c0c0c0" stroke-width="2" points="690.5001,-411.4132 687,-401.4133 683.5001,-411.4133 690.5001,-411.4132"/>
</g>
</g>
</svg>
